<svg xmlns="http://www.w3.org/2000/svg" width="202.667" height="202.667" preserveAspectRatio="xMidYMid meet" version="1.0" viewBox="0 0 152 152"><metadata>Created by potrace 1.11, written by Peter Selinger 2001-2013</metadata><g fill="#000" stroke="none"><path d="M1322 1463 c-8 -3 -21 -18 -30 -33 -15 -24 -129 -155 -192 -219 l-25 -26 -455 2 c-250 1 -473 0 -496 -3 -76 -9 -74 8 -74 -572 l0 -511 24 -28 24 -28 527 0 527 0 23 28 c23 26 27 50 26 177 0 35 -1 146 0 160 0 8 0 44 0 80 -1 36 -1 72 0 80 0 42 0 158 -1 180 -5 121 -4 210 2 210 4 0 3 14 -2 31 -8 28 -5 35 48 92 31 34 72 80 92 102 19 22 57 61 83 87 65 64 69 96 18 147 -45 45 -82 59 -119 44z" transform="translate(0.000000,152.000000) scale(0.100000,-0.100000)"/></g></svg>